<mxfile host="Electron" agent="Mozilla/5.0 (Windows NT 10.0; Win64; x64) AppleWebKit/537.36 (KHTML, like Gecko) draw.io/24.7.17 Chrome/128.0.6613.36 Electron/32.0.1 Safari/537.36" version="24.7.17">
  <diagram id="C5RBs43oDa-KdzZeNtuy" name="Page-1">
    <mxGraphModel dx="1098" dy="828" grid="1" gridSize="10" guides="1" tooltips="1" connect="1" arrows="1" fold="1" page="1" pageScale="1" pageWidth="827" pageHeight="1169" math="0" shadow="0">
      <root>
        <mxCell id="WIyWlLk6GJQsqaUBKTNV-0" />
        <mxCell id="WIyWlLk6GJQsqaUBKTNV-1" parent="WIyWlLk6GJQsqaUBKTNV-0" />
        <mxCell id="xfNOZjnpDUWlMvhL13vc-9" style="edgeStyle=orthogonalEdgeStyle;rounded=0;orthogonalLoop=1;jettySize=auto;html=1;entryX=0;entryY=0.5;entryDx=0;entryDy=0;" edge="1" parent="WIyWlLk6GJQsqaUBKTNV-1" source="WIyWlLk6GJQsqaUBKTNV-3" target="xfNOZjnpDUWlMvhL13vc-0">
          <mxGeometry relative="1" as="geometry" />
        </mxCell>
        <mxCell id="xfNOZjnpDUWlMvhL13vc-44" style="edgeStyle=orthogonalEdgeStyle;rounded=0;orthogonalLoop=1;jettySize=auto;html=1;exitX=0.75;exitY=1;exitDx=0;exitDy=0;entryX=1;entryY=0.5;entryDx=0;entryDy=0;" edge="1" parent="WIyWlLk6GJQsqaUBKTNV-1" source="WIyWlLk6GJQsqaUBKTNV-3" target="xfNOZjnpDUWlMvhL13vc-43">
          <mxGeometry relative="1" as="geometry" />
        </mxCell>
        <mxCell id="xfNOZjnpDUWlMvhL13vc-45" value="Høyde = &quot;&quot;" style="edgeLabel;html=1;align=center;verticalAlign=middle;resizable=0;points=[];" vertex="1" connectable="0" parent="xfNOZjnpDUWlMvhL13vc-44">
          <mxGeometry x="-0.3846" relative="1" as="geometry">
            <mxPoint as="offset" />
          </mxGeometry>
        </mxCell>
        <mxCell id="xfNOZjnpDUWlMvhL13vc-46" style="edgeStyle=orthogonalEdgeStyle;rounded=0;orthogonalLoop=1;jettySize=auto;html=1;" edge="1" parent="WIyWlLk6GJQsqaUBKTNV-1" source="WIyWlLk6GJQsqaUBKTNV-3">
          <mxGeometry relative="1" as="geometry">
            <mxPoint x="250" y="200" as="targetPoint" />
          </mxGeometry>
        </mxCell>
        <mxCell id="xfNOZjnpDUWlMvhL13vc-47" value="Høyde = 0" style="edgeLabel;html=1;align=center;verticalAlign=middle;resizable=0;points=[];" vertex="1" connectable="0" parent="xfNOZjnpDUWlMvhL13vc-46">
          <mxGeometry x="0.2863" y="1" relative="1" as="geometry">
            <mxPoint as="offset" />
          </mxGeometry>
        </mxCell>
        <mxCell id="xfNOZjnpDUWlMvhL13vc-48" value="&quot;Høyde kan ikke være null!&quot;" style="edgeLabel;html=1;align=center;verticalAlign=middle;resizable=0;points=[];" vertex="1" connectable="0" parent="xfNOZjnpDUWlMvhL13vc-46">
          <mxGeometry x="0.542" y="-2" relative="1" as="geometry">
            <mxPoint as="offset" />
          </mxGeometry>
        </mxCell>
        <mxCell id="WIyWlLk6GJQsqaUBKTNV-3" value="Input: Høyde" style="rounded=1;whiteSpace=wrap;html=1;fontSize=12;glass=0;strokeWidth=1;shadow=0;" parent="WIyWlLk6GJQsqaUBKTNV-1" vertex="1">
          <mxGeometry x="289" y="290" width="120" height="40" as="geometry" />
        </mxCell>
        <mxCell id="xfNOZjnpDUWlMvhL13vc-10" style="edgeStyle=orthogonalEdgeStyle;rounded=0;orthogonalLoop=1;jettySize=auto;html=1;entryX=0;entryY=0.5;entryDx=0;entryDy=0;" edge="1" parent="WIyWlLk6GJQsqaUBKTNV-1" source="WIyWlLk6GJQsqaUBKTNV-6" target="xfNOZjnpDUWlMvhL13vc-4">
          <mxGeometry relative="1" as="geometry">
            <mxPoint x="240" y="200" as="targetPoint" />
            <Array as="points">
              <mxPoint x="180" y="460" />
              <mxPoint x="180" y="200" />
            </Array>
          </mxGeometry>
        </mxCell>
        <mxCell id="xfNOZjnpDUWlMvhL13vc-11" value="Casting får error" style="edgeLabel;html=1;align=center;verticalAlign=middle;resizable=0;points=[];" vertex="1" connectable="0" parent="xfNOZjnpDUWlMvhL13vc-10">
          <mxGeometry x="-0.0369" y="1" relative="1" as="geometry">
            <mxPoint as="offset" />
          </mxGeometry>
        </mxCell>
        <mxCell id="xfNOZjnpDUWlMvhL13vc-12" value="&quot;Sett inn kun tall!&quot;" style="edgeLabel;html=1;align=center;verticalAlign=middle;resizable=0;points=[];" vertex="1" connectable="0" parent="xfNOZjnpDUWlMvhL13vc-10">
          <mxGeometry x="0.1475" relative="1" as="geometry">
            <mxPoint as="offset" />
          </mxGeometry>
        </mxCell>
        <mxCell id="xfNOZjnpDUWlMvhL13vc-18" style="edgeStyle=orthogonalEdgeStyle;rounded=0;orthogonalLoop=1;jettySize=auto;html=1;entryX=0.5;entryY=0;entryDx=0;entryDy=0;" edge="1" parent="WIyWlLk6GJQsqaUBKTNV-1" source="WIyWlLk6GJQsqaUBKTNV-6" target="xfNOZjnpDUWlMvhL13vc-17">
          <mxGeometry relative="1" as="geometry" />
        </mxCell>
        <mxCell id="xfNOZjnpDUWlMvhL13vc-19" value="Resultat" style="edgeLabel;html=1;align=center;verticalAlign=middle;resizable=0;points=[];" vertex="1" connectable="0" parent="xfNOZjnpDUWlMvhL13vc-18">
          <mxGeometry x="-0.2" y="1" relative="1" as="geometry">
            <mxPoint as="offset" />
          </mxGeometry>
        </mxCell>
        <mxCell id="WIyWlLk6GJQsqaUBKTNV-6" value="kalkuler_bmi()" style="rhombus;whiteSpace=wrap;html=1;shadow=0;fontFamily=Helvetica;fontSize=12;align=center;strokeWidth=1;spacing=6;spacingTop=-4;" parent="WIyWlLk6GJQsqaUBKTNV-1" vertex="1">
          <mxGeometry x="354" y="420" width="100" height="80" as="geometry" />
        </mxCell>
        <mxCell id="xfNOZjnpDUWlMvhL13vc-2" style="edgeStyle=orthogonalEdgeStyle;rounded=0;orthogonalLoop=1;jettySize=auto;html=1;" edge="1" parent="WIyWlLk6GJQsqaUBKTNV-1" source="xfNOZjnpDUWlMvhL13vc-0" target="WIyWlLk6GJQsqaUBKTNV-6">
          <mxGeometry relative="1" as="geometry" />
        </mxCell>
        <mxCell id="xfNOZjnpDUWlMvhL13vc-5" style="edgeStyle=orthogonalEdgeStyle;rounded=0;orthogonalLoop=1;jettySize=auto;html=1;entryX=0.5;entryY=1;entryDx=0;entryDy=0;" edge="1" parent="WIyWlLk6GJQsqaUBKTNV-1" source="xfNOZjnpDUWlMvhL13vc-0" target="xfNOZjnpDUWlMvhL13vc-4">
          <mxGeometry relative="1" as="geometry" />
        </mxCell>
        <mxCell id="xfNOZjnpDUWlMvhL13vc-8" value="Casting får error" style="edgeLabel;html=1;align=center;verticalAlign=middle;resizable=0;points=[];" vertex="1" connectable="0" parent="xfNOZjnpDUWlMvhL13vc-5">
          <mxGeometry x="-0.7" y="3" relative="1" as="geometry">
            <mxPoint as="offset" />
          </mxGeometry>
        </mxCell>
        <mxCell id="xfNOZjnpDUWlMvhL13vc-13" value="&quot;Sett inn kun tall!&quot;" style="edgeLabel;html=1;align=center;verticalAlign=middle;resizable=0;points=[];" vertex="1" connectable="0" parent="xfNOZjnpDUWlMvhL13vc-5">
          <mxGeometry x="0.5591" y="-1" relative="1" as="geometry">
            <mxPoint as="offset" />
          </mxGeometry>
        </mxCell>
        <mxCell id="xfNOZjnpDUWlMvhL13vc-0" value="Input: Vekt" style="rounded=1;whiteSpace=wrap;html=1;fontSize=12;glass=0;strokeWidth=1;shadow=0;" vertex="1" parent="WIyWlLk6GJQsqaUBKTNV-1">
          <mxGeometry x="440" y="330" width="120" height="40" as="geometry" />
        </mxCell>
        <mxCell id="xfNOZjnpDUWlMvhL13vc-4" value="Programstart:&lt;div&gt;&quot;BMI-kalkulator&quot;&lt;/div&gt;" style="whiteSpace=wrap;html=1;" vertex="1" parent="WIyWlLk6GJQsqaUBKTNV-1">
          <mxGeometry x="354" y="170" width="120" height="60" as="geometry" />
        </mxCell>
        <mxCell id="xfNOZjnpDUWlMvhL13vc-6" style="edgeStyle=orthogonalEdgeStyle;rounded=0;orthogonalLoop=1;jettySize=auto;html=1;entryX=0.417;entryY=-0.075;entryDx=0;entryDy=0;entryPerimeter=0;" edge="1" parent="WIyWlLk6GJQsqaUBKTNV-1" source="xfNOZjnpDUWlMvhL13vc-4" target="WIyWlLk6GJQsqaUBKTNV-3">
          <mxGeometry relative="1" as="geometry" />
        </mxCell>
        <mxCell id="xfNOZjnpDUWlMvhL13vc-21" value="" style="edgeStyle=orthogonalEdgeStyle;rounded=0;orthogonalLoop=1;jettySize=auto;html=1;" edge="1" parent="WIyWlLk6GJQsqaUBKTNV-1" source="xfNOZjnpDUWlMvhL13vc-17" target="xfNOZjnpDUWlMvhL13vc-20">
          <mxGeometry relative="1" as="geometry" />
        </mxCell>
        <mxCell id="xfNOZjnpDUWlMvhL13vc-22" value="Ja" style="edgeLabel;html=1;align=center;verticalAlign=middle;resizable=0;points=[];" vertex="1" connectable="0" parent="xfNOZjnpDUWlMvhL13vc-21">
          <mxGeometry x="0.0333" y="3" relative="1" as="geometry">
            <mxPoint as="offset" />
          </mxGeometry>
        </mxCell>
        <mxCell id="xfNOZjnpDUWlMvhL13vc-24" style="edgeStyle=orthogonalEdgeStyle;rounded=0;orthogonalLoop=1;jettySize=auto;html=1;entryX=0.5;entryY=0;entryDx=0;entryDy=0;" edge="1" parent="WIyWlLk6GJQsqaUBKTNV-1" source="xfNOZjnpDUWlMvhL13vc-17" target="xfNOZjnpDUWlMvhL13vc-23">
          <mxGeometry relative="1" as="geometry" />
        </mxCell>
        <mxCell id="xfNOZjnpDUWlMvhL13vc-25" value="Nei" style="edgeLabel;html=1;align=center;verticalAlign=middle;resizable=0;points=[];" vertex="1" connectable="0" parent="xfNOZjnpDUWlMvhL13vc-24">
          <mxGeometry x="0.05" relative="1" as="geometry">
            <mxPoint as="offset" />
          </mxGeometry>
        </mxCell>
        <mxCell id="xfNOZjnpDUWlMvhL13vc-17" value="Mindre enn eller lik 18,4" style="rhombus;whiteSpace=wrap;html=1;" vertex="1" parent="WIyWlLk6GJQsqaUBKTNV-1">
          <mxGeometry x="364" y="560" width="80" height="80" as="geometry" />
        </mxCell>
        <mxCell id="xfNOZjnpDUWlMvhL13vc-41" style="edgeStyle=orthogonalEdgeStyle;rounded=0;orthogonalLoop=1;jettySize=auto;html=1;entryX=0.5;entryY=1;entryDx=0;entryDy=0;" edge="1" parent="WIyWlLk6GJQsqaUBKTNV-1" source="xfNOZjnpDUWlMvhL13vc-20" target="xfNOZjnpDUWlMvhL13vc-38">
          <mxGeometry relative="1" as="geometry" />
        </mxCell>
        <mxCell id="xfNOZjnpDUWlMvhL13vc-20" value="Undervektig" style="whiteSpace=wrap;html=1;" vertex="1" parent="WIyWlLk6GJQsqaUBKTNV-1">
          <mxGeometry x="184" y="570" width="120" height="60" as="geometry" />
        </mxCell>
        <mxCell id="xfNOZjnpDUWlMvhL13vc-29" value="" style="edgeStyle=orthogonalEdgeStyle;rounded=0;orthogonalLoop=1;jettySize=auto;html=1;" edge="1" parent="WIyWlLk6GJQsqaUBKTNV-1" source="xfNOZjnpDUWlMvhL13vc-23" target="xfNOZjnpDUWlMvhL13vc-28">
          <mxGeometry relative="1" as="geometry" />
        </mxCell>
        <mxCell id="xfNOZjnpDUWlMvhL13vc-34" value="Ja" style="edgeLabel;html=1;align=center;verticalAlign=middle;resizable=0;points=[];" vertex="1" connectable="0" parent="xfNOZjnpDUWlMvhL13vc-29">
          <mxGeometry x="-0.1429" relative="1" as="geometry">
            <mxPoint as="offset" />
          </mxGeometry>
        </mxCell>
        <mxCell id="xfNOZjnpDUWlMvhL13vc-31" value="" style="edgeStyle=orthogonalEdgeStyle;rounded=0;orthogonalLoop=1;jettySize=auto;html=1;" edge="1" parent="WIyWlLk6GJQsqaUBKTNV-1" source="xfNOZjnpDUWlMvhL13vc-23" target="xfNOZjnpDUWlMvhL13vc-30">
          <mxGeometry relative="1" as="geometry" />
        </mxCell>
        <mxCell id="xfNOZjnpDUWlMvhL13vc-36" value="Nei" style="edgeLabel;html=1;align=center;verticalAlign=middle;resizable=0;points=[];" vertex="1" connectable="0" parent="xfNOZjnpDUWlMvhL13vc-31">
          <mxGeometry x="-0.04" relative="1" as="geometry">
            <mxPoint as="offset" />
          </mxGeometry>
        </mxCell>
        <mxCell id="xfNOZjnpDUWlMvhL13vc-23" value="Mellom 18.5 og 24.9, inkludert endepunkt" style="rhombus;whiteSpace=wrap;html=1;" vertex="1" parent="WIyWlLk6GJQsqaUBKTNV-1">
          <mxGeometry x="346" y="680" width="116" height="80" as="geometry" />
        </mxCell>
        <mxCell id="xfNOZjnpDUWlMvhL13vc-40" style="edgeStyle=orthogonalEdgeStyle;rounded=0;orthogonalLoop=1;jettySize=auto;html=1;entryX=0.5;entryY=1;entryDx=0;entryDy=0;" edge="1" parent="WIyWlLk6GJQsqaUBKTNV-1" source="xfNOZjnpDUWlMvhL13vc-28" target="xfNOZjnpDUWlMvhL13vc-38">
          <mxGeometry relative="1" as="geometry" />
        </mxCell>
        <mxCell id="xfNOZjnpDUWlMvhL13vc-28" value="Normalvektig" style="whiteSpace=wrap;html=1;" vertex="1" parent="WIyWlLk6GJQsqaUBKTNV-1">
          <mxGeometry x="184" y="690" width="120" height="60" as="geometry" />
        </mxCell>
        <mxCell id="xfNOZjnpDUWlMvhL13vc-33" value="" style="edgeStyle=orthogonalEdgeStyle;rounded=0;orthogonalLoop=1;jettySize=auto;html=1;" edge="1" parent="WIyWlLk6GJQsqaUBKTNV-1" source="xfNOZjnpDUWlMvhL13vc-30" target="xfNOZjnpDUWlMvhL13vc-32">
          <mxGeometry relative="1" as="geometry" />
        </mxCell>
        <mxCell id="xfNOZjnpDUWlMvhL13vc-35" value="Ja" style="edgeLabel;html=1;align=center;verticalAlign=middle;resizable=0;points=[];" vertex="1" connectable="0" parent="xfNOZjnpDUWlMvhL13vc-33">
          <mxGeometry x="-0.0345" y="-2" relative="1" as="geometry">
            <mxPoint as="offset" />
          </mxGeometry>
        </mxCell>
        <mxCell id="xfNOZjnpDUWlMvhL13vc-30" value="Over eller lik 25" style="rhombus;whiteSpace=wrap;html=1;" vertex="1" parent="WIyWlLk6GJQsqaUBKTNV-1">
          <mxGeometry x="362" y="810" width="84" height="80" as="geometry" />
        </mxCell>
        <mxCell id="xfNOZjnpDUWlMvhL13vc-39" style="edgeStyle=orthogonalEdgeStyle;rounded=0;orthogonalLoop=1;jettySize=auto;html=1;entryX=0.5;entryY=1;entryDx=0;entryDy=0;" edge="1" parent="WIyWlLk6GJQsqaUBKTNV-1" source="xfNOZjnpDUWlMvhL13vc-32" target="xfNOZjnpDUWlMvhL13vc-38">
          <mxGeometry relative="1" as="geometry" />
        </mxCell>
        <mxCell id="xfNOZjnpDUWlMvhL13vc-32" value="Overvektig" style="whiteSpace=wrap;html=1;" vertex="1" parent="WIyWlLk6GJQsqaUBKTNV-1">
          <mxGeometry x="184" y="820" width="120" height="60" as="geometry" />
        </mxCell>
        <mxCell id="xfNOZjnpDUWlMvhL13vc-42" style="edgeStyle=orthogonalEdgeStyle;rounded=0;orthogonalLoop=1;jettySize=auto;html=1;exitX=0.5;exitY=0;exitDx=0;exitDy=0;entryX=0.5;entryY=0;entryDx=0;entryDy=0;" edge="1" parent="WIyWlLk6GJQsqaUBKTNV-1" source="xfNOZjnpDUWlMvhL13vc-38" target="xfNOZjnpDUWlMvhL13vc-4">
          <mxGeometry relative="1" as="geometry" />
        </mxCell>
        <mxCell id="xfNOZjnpDUWlMvhL13vc-38" value="Skriv resultat" style="whiteSpace=wrap;html=1;" vertex="1" parent="WIyWlLk6GJQsqaUBKTNV-1">
          <mxGeometry x="30" y="430" width="120" height="60" as="geometry" />
        </mxCell>
        <mxCell id="xfNOZjnpDUWlMvhL13vc-43" value="Program avsluttes&lt;div&gt;&quot;Takk for nå.&quot;&lt;/div&gt;" style="whiteSpace=wrap;html=1;" vertex="1" parent="WIyWlLk6GJQsqaUBKTNV-1">
          <mxGeometry x="210" y="360" width="120" height="50" as="geometry" />
        </mxCell>
      </root>
    </mxGraphModel>
  </diagram>
</mxfile>
